HIERARCHY
ROOT hips
{
	OFFSET 0.000000 104.274902 0.000000
	CHANNELS 6 Xposition Yposition Zposition Xrotation Yrotation Zrotation
	JOINT spine
	{
		OFFSET 0.000000 10.181549 0.131524
		CHANNELS 6 Xposition Yposition Zposition Xrotation Yrotation Zrotation
		JOINT chest
		{
			OFFSET 0.000000 9.893990 -1.470706
			CHANNELS 3 Xrotation Yrotation Zrotation
			JOINT upperChest
			{
				OFFSET 0.000000 9.220787 -1.370637
				CHANNELS 3 Xrotation Yrotation Zrotation
				JOINT neck
				{
					OFFSET 0.000000 16.740372 -2.049022
					CHANNELS 6 Xposition Yposition Zposition Xrotation Yrotation Zrotation
					JOINT head
					{
						OFFSET 0.000000 9.617859 1.684976
						CHANNELS 6 Xposition Yposition Zposition Xrotation Yrotation Zrotation
						JOINT headEnd
						{
							OFFSET 0.000000 22.037384 7.501072
							CHANNELS 6 Xposition Yposition Zposition Xrotation Yrotation Zrotation
							End Site
							{
								OFFSET 0.000000 23.106567 -2.828246
							}
						}
					}
				}
				JOINT rightShoulder
				{
					OFFSET -4.570000 11.014877 -2.160840
					CHANNELS 6 Xposition Yposition Zposition Xrotation Yrotation Zrotation
					JOINT rightUpperArm
					{
						OFFSET -10.592867 -0.524796 -2.232105
						CHANNELS 3 Xrotation Yrotation Zrotation
						JOINT rightLowerArm
						{
							OFFSET -27.841497 0.000000 -0.000002
							CHANNELS 3 Xrotation Yrotation Zrotation
							JOINT rightHand
							{
								OFFSET -28.328812 0.000000 -0.000001
								CHANNELS 3 Xrotation Yrotation Zrotation
								JOINT rightThumbProximal
								{
									OFFSET -2.464798 -1.573990 2.681911
									CHANNELS 6 Xposition Yposition Zposition Xrotation Yrotation Zrotation
									JOINT rightThumbIntermediate
									{
										OFFSET -3.244781 -1.873383 1.873376
										CHANNELS 3 Xrotation Yrotation Zrotation
										JOINT rightThumbDistal
										{
											OFFSET -2.646263 -1.527817 1.527818
											CHANNELS 6 Xposition Yposition Zposition Xrotation Yrotation Zrotation
											JOINT rightHandThumb4
											{
												OFFSET -1.994591 -1.151581 1.151575
												CHANNELS 6 Xposition Yposition Zposition Xrotation Yrotation Zrotation
												End Site
												{
													OFFSET -1.860176 -1.142715 1.365483
												}
											}
										}
									}
								}
								JOINT rightIndexProximal
								{
									OFFSET -9.108299 -0.517883 2.259803
									CHANNELS 6 Xposition Yposition Zposition Xrotation Yrotation Zrotation
									JOINT rightIndexIntermediate
									{
										OFFSET -3.699997 0.000000 0.000000
										CHANNELS 3 Xrotation Yrotation Zrotation
										JOINT rightIndexDistal
										{
											OFFSET -2.850006 0.000000 0.000000
											CHANNELS 3 Xrotation Yrotation Zrotation
											JOINT rightHandIndex4
											{
												OFFSET -2.772194 0.000000 0.000000
												CHANNELS 3 Xrotation Yrotation Zrotation
												End Site
												{
													OFFSET -2.772202 0.000000 -0.000484
												}
											}
										}
									}
								}
								JOINT rightMiddleProximal
								{
									OFFSET -9.532501 0.000000 -0.000000
									CHANNELS 6 Xposition Yposition Zposition Xrotation Yrotation Zrotation
									JOINT rightMiddleIntermediate
									{
										OFFSET -3.699997 0.000000 0.000000
										CHANNELS 3 Xrotation Yrotation Zrotation
										JOINT rightMiddleDistal
										{
											OFFSET -2.949997 0.000000 0.000000
											CHANNELS 3 Xrotation Yrotation Zrotation
											JOINT rightHandMiddle4
											{
												OFFSET -2.946594 0.000000 0.000000
												CHANNELS 3 Xrotation Yrotation Zrotation
												End Site
												{
													OFFSET -2.946602 0.000000 -0.000982
												}
											}
										}
									}
								}
								JOINT rightRingProximal
								{
									OFFSET -9.103600 -0.043106 -1.865100
									CHANNELS 6 Xposition Yposition Zposition Xrotation Yrotation Zrotation
									JOINT rightRingIntermediate
									{
										OFFSET -3.379303 0.000000 0.000000
										CHANNELS 3 Xrotation Yrotation Zrotation
										JOINT rightRingDistal
										{
											OFFSET -2.889694 0.000000 0.000000
											CHANNELS 3 Xrotation Yrotation Zrotation
											JOINT rightHandRing4
											{
												OFFSET -2.638802 0.000000 0.000000
												CHANNELS 3 Xrotation Yrotation Zrotation
												End Site
												{
													OFFSET -2.638802 0.000000 0.004218
												}
											}
										}
									}
								}
								JOINT rightLittleProximal
								{
									OFFSET -8.076698 -0.486725 -3.806299
									CHANNELS 6 Xposition Yposition Zposition Xrotation Yrotation Zrotation
									JOINT rightLittleIntermediate
									{
										OFFSET -3.600006 0.000000 0.000000
										CHANNELS 3 Xrotation Yrotation Zrotation
										JOINT rightLittleDistal
										{
											OFFSET -2.099998 0.000000 0.000000
											CHANNELS 3 Xrotation Yrotation Zrotation
											JOINT rightHandPinky4
											{
												OFFSET -2.115791 0.000000 0.000000
												CHANNELS 3 Xrotation Yrotation Zrotation
												End Site
												{
													OFFSET -2.115799 0.000000 0.000174
												}
											}
										}
									}
								}
							}
						}
					}
				}
				JOINT leftShoulder
				{
					OFFSET 4.570400 11.014679 -2.160816
					CHANNELS 6 Xposition Yposition Zposition Xrotation Yrotation Zrotation
					JOINT leftUpperArm
					{
						OFFSET 10.592373 -0.524597 -2.232116
						CHANNELS 3 Xrotation Yrotation Zrotation
						JOINT leftLowerArm
						{
							OFFSET 27.841488 0.000000 0.000001
							CHANNELS 3 Xrotation Yrotation Zrotation
							JOINT leftHand
							{
								OFFSET 28.328808 0.000000 -0.000000
								CHANNELS 3 Xrotation Yrotation Zrotation
								JOINT leftThumbProximal
								{
									OFFSET 2.466103 -1.576202 2.681698
									CHANNELS 6 Xposition Yposition Zposition Xrotation Yrotation Zrotation
									JOINT leftThumbIntermediate
									{
										OFFSET 3.243317 -1.872528 1.872530
										CHANNELS 3 Xrotation Yrotation Zrotation
										JOINT leftThumbDistal
										{
											OFFSET 2.647881 -1.528763 1.528754
											CHANNELS 6 Xposition Yposition Zposition Xrotation Yrotation Zrotation
											JOINT leftHandThumb4
											{
												OFFSET 1.998924 -1.154083 1.154080
												CHANNELS 6 Xposition Yposition Zposition Xrotation Yrotation Zrotation
												End Site
												{
													OFFSET 1.884041 -1.149155 1.337651
												}
											}
										}
									}
								}
								JOINT leftIndexProximal
								{
									OFFSET 9.109299 -0.518005 2.259900
									CHANNELS 6 Xposition Yposition Zposition Xrotation Yrotation Zrotation
									JOINT leftIndexIntermediate
									{
										OFFSET 3.699997 0.000000 0.000000
										CHANNELS 3 Xrotation Yrotation Zrotation
										JOINT leftIndexDistal
										{
											OFFSET 2.850006 0.000000 0.000000
											CHANNELS 3 Xrotation Yrotation Zrotation
											JOINT leftHandIndex4
											{
												OFFSET 2.774895 0.000000 0.000000
												CHANNELS 3 Xrotation Yrotation Zrotation
												End Site
												{
													OFFSET 2.774902 0.000000 -0.000072
												}
											}
										}
									}
								}
								JOINT leftMiddleProximal
								{
									OFFSET 9.533401 0.000000 0.000000
									CHANNELS 6 Xposition Yposition Zposition Xrotation Yrotation Zrotation
									JOINT leftMiddleIntermediate
									{
										OFFSET 3.699997 0.000000 0.000000
										CHANNELS 3 Xrotation Yrotation Zrotation
										JOINT leftMiddleDistal
										{
											OFFSET 2.949997 0.000000 0.000000
											CHANNELS 3 Xrotation Yrotation Zrotation
											JOINT leftHandMiddle4
											{
												OFFSET 2.952896 0.000000 0.000000
												CHANNELS 3 Xrotation Yrotation Zrotation
												End Site
												{
													OFFSET 2.952904 0.000000 0.000165
												}
											}
										}
									}
								}
								JOINT leftRingProximal
								{
									OFFSET 9.104500 -0.042999 -1.865101
									CHANNELS 6 Xposition Yposition Zposition Xrotation Yrotation Zrotation
									JOINT leftRingIntermediate
									{
										OFFSET 3.149994 0.000000 0.000000
										CHANNELS 3 Xrotation Yrotation Zrotation
										JOINT leftRingDistal
										{
											OFFSET 2.950005 0.000000 0.000000
											CHANNELS 3 Xrotation Yrotation Zrotation
											JOINT leftHandRing4
											{
												OFFSET 2.644302 0.000000 0.000000
												CHANNELS 3 Xrotation Yrotation Zrotation
												End Site
												{
													OFFSET 2.644302 0.000000 0.000083
												}
											}
										}
									}
								}
								JOINT leftLittleProximal
								{
									OFFSET 8.077805 -0.486893 -3.806302
									CHANNELS 6 Xposition Yposition Zposition Xrotation Yrotation Zrotation
									JOINT leftLittleIntermediate
									{
										OFFSET 3.600006 0.000000 0.000000
										CHANNELS 3 Xrotation Yrotation Zrotation
										JOINT leftLittleDistal
										{
											OFFSET 2.099998 0.000000 0.000000
											CHANNELS 3 Xrotation Yrotation Zrotation
											JOINT leftHandPinky4
											{
												OFFSET 2.125496 0.000000 0.000000
												CHANNELS 3 Xrotation Yrotation Zrotation
												End Site
												{
													OFFSET 2.125504 0.000000 -0.001254
												}
											}
										}
									}
								}
							}
						}
					}
				}
			}
		}
	}
	JOINT rightUpperLeg
	{
		OFFSET -8.207800 -6.751701 -1.599544
		CHANNELS 6 Xposition Yposition Zposition Xrotation Yrotation Zrotation
		JOINT rightLowerLeg
		{
			OFFSET 0.000004 -44.370152 0.345934
			CHANNELS 3 Xrotation Yrotation Zrotation
			JOINT rightFoot
			{
				OFFSET 0.000004 -44.423664 -3.043535
				CHANNELS 3 Xrotation Yrotation Zrotation
				JOINT rightToes
				{
					OFFSET 0.000001 -8.728691 10.710592
					CHANNELS 3 Xrotation Yrotation Zrotation
					JOINT rightToesEnd
					{
						OFFSET 0.000000 -0.000665 9.278101
						CHANNELS 3 Xrotation Yrotation Zrotation
						End Site
						{
							OFFSET 0.000000 -0.000665 9.278103
						}
					}
				}
			}
		}
	}
	JOINT leftUpperLeg
	{
		OFFSET 8.207800 -6.751701 -1.599544
		CHANNELS 6 Xposition Yposition Zposition Xrotation Yrotation Zrotation
		JOINT leftLowerLeg
		{
			OFFSET 0.000004 -44.370037 0.346940
			CHANNELS 3 Xrotation Yrotation Zrotation
			JOINT leftFoot
			{
				OFFSET 0.000004 -44.423611 -3.044388
				CHANNELS 3 Xrotation Yrotation Zrotation
				JOINT leftToes
				{
					OFFSET 0.000001 -8.728690 10.710592
					CHANNELS 3 Xrotation Yrotation Zrotation
					JOINT leftToesEnd
					{
						OFFSET 0.000000 -0.000680 9.278101
						CHANNELS 3 Xrotation Yrotation Zrotation
						End Site
						{
							OFFSET 0.000000 -0.000680 9.278101
						}
					}
				}
			}
		}
	}
}
MOTION
Frames: 4
Frame Time: 0.033333
4.066674 99.165245 0.661141 -2.625923 23.178544 5.188857 0.000001 10.181548 0.131523 -7.133467 -1.640614 -4.865156 7.091641 -0.400456 -0.470550 7.091957 -0.348474 -0.511536 0.000001 16.740337 -2.049019 2.554641 0.327133 1.246650 -0.000003 9.617855 1.684974 -16.497480 6.614635 -8.563261 0.000000 22.037369 7.501074 0.000000 -0.000002 0.000000 -4.570000 11.014868 -2.160839 0.348252 8.505596 15.093644 55.117584 -9.218115 64.207350 0.000143 111.464678 -0.000112 63.441741 -1.187039 -2.738076 -2.464801 -1.573998 2.681905 21.625641 11.113567 11.672704 19.453272 -44.320937 -3.399097 -2.646256 -1.527810 1.527830 14.641960 -48.780347 -8.907122 -1.994598 -1.151585 1.151576 0.000002 -0.000006 -0.000000 -9.108329 -0.517886 2.259798 7.444539 -6.930557 94.106264 7.444548 -6.930554 94.106264 7.444551 -6.930571 94.106258 0.000001 -0.000001 -0.000002 -9.532512 0.000010 -0.000004 4.191700 -6.380507 66.575152 4.191685 -6.380505 66.575165 4.191680 -6.380484 66.575138 0.000001 -0.000001 -0.000000 -9.103607 -0.043102 -1.865102 3.960679 -6.275987 64.479479 3.960658 -6.275986 64.479438 3.960669 -6.276003 64.479445 -0.000001 0.000001 0.000001 -8.076696 -0.486717 -3.806300 4.691014 -6.573075 70.999550 4.691016 -6.573062 70.999571 4.691002 -6.573065 70.999571 -0.000001 -0.000001 -0.000002 4.570401 11.014675 -2.160814 0.574257 -12.512547 -9.854579 5.843860 -18.910859 -63.834490 -0.000003 -18.667870 0.000013 -25.232445 -0.203881 -6.581399 2.466106 -1.576219 2.681694 -2.215323 25.588923 10.084925 1.536136 19.593953 -2.276284 2.647877 -1.528745 1.528748 0.241191 10.850799 3.419958 1.998909 -1.154092 1.154074 0.000001 -0.000001 -0.000000 9.109301 -0.518010 2.259896 0.184402 1.586067 -13.264088 0.184404 1.586066 -13.264069 0.184405 1.586070 -13.264088 -0.000001 0.000000 -0.000003 9.533409 0.000006 -0.000005 0.356803 2.191905 -18.490837 0.358037 2.195568 -18.522891 0.357425 2.193745 -18.506864 0.000001 -0.000002 0.000004 9.104500 -0.043007 -1.865105 0.614095 2.847353 -24.338631 0.614118 2.847358 -24.338641 0.614110 2.847343 -24.338660 -0.000001 -0.000000 0.000001 8.077807 -0.486905 -3.806307 2.734383 6.517086 -30.328280 0.977973 -0.539344 -31.115541 0.966697 3.523412 -30.677521 0.000001 -0.000000 -0.000000 -8.207801 -6.751729 -1.599540 -22.779863 -2.027261 -13.863448 28.972757 -9.979346 -3.324096 -1.660042 -3.859589 11.440458 -0.058092 -0.000000 0.000002 -0.000000 -0.000000 0.000000 8.207801 -6.751701 -1.599542 -10.028996 -1.829668 -11.524116 29.649308 10.176683 4.827673 -17.636230 26.923767 -1.096516 -0.962021 0.000024 -0.000003 0.000000 0.000003 0.000000 
4.071931 99.169449 0.670247 -2.648182 23.182162 5.174468 -0.000000 10.181541 0.131524 -7.123840 -1.640430 -4.847522 7.084306 -0.398214 -0.452621 7.084700 -0.346724 -0.493433 0.000000 16.740383 -2.049022 2.562375 0.328902 1.233459 -0.000001 9.617859 1.684978 -16.481357 6.617217 -8.577754 0.000003 22.037384 7.501069 0.000000 0.000001 -0.000001 -4.570004 11.014888 -2.160841 0.349402 8.501414 15.072112 55.124483 -9.229325 64.233893 0.000172 111.462690 -0.000127 63.437998 -1.156502 -2.734937 -2.464816 -1.573976 2.681909 21.625636 11.113571 11.672719 19.453277 -44.320964 -3.399089 -2.646254 -1.527784 1.527808 14.641933 -48.780340 -8.907152 -1.994594 -1.151584 1.151571 0.000000 0.000000 0.000001 -9.108329 -0.517860 2.259797 7.444557 -6.930555 94.106278 7.444554 -6.930556 94.106264 7.444539 -6.930560 94.106264 0.000003 -0.000001 0.000001 -9.532506 0.000016 -0.000004 4.191684 -6.380502 66.575145 4.191708 -6.380516 66.575145 4.191682 -6.380497 66.575131 0.000001 0.000003 0.000002 -9.103598 -0.043089 -1.865100 3.960666 -6.275998 64.479445 3.960643 -6.275985 64.479417 3.960672 -6.275997 64.479472 -0.000001 -0.000003 -0.000004 -8.076694 -0.486704 -3.806301 4.691006 -6.573078 70.999550 4.691009 -6.573061 70.999564 4.691006 -6.573060 70.999536 -0.000002 0.000000 0.000001 4.570401 11.014691 -2.160816 0.574282 -12.514288 -9.854176 5.808265 -18.951944 -63.865274 0.000014 -18.559232 0.000004 -25.293483 -0.269016 -6.599878 2.466098 -1.576226 2.681696 -2.215333 25.588928 10.084920 1.536136 19.593950 -2.276263 2.647875 -1.528754 1.528749 0.241191 10.850806 3.419946 1.998932 -1.154090 1.154079 -0.000002 0.000000 0.000003 9.109297 -0.518014 2.259897 0.184403 1.586068 -13.264072 0.184394 1.586064 -13.264089 0.184415 1.586071 -13.264076 -0.000000 -0.000001 -0.000002 9.533416 0.000005 -0.000004 0.356814 2.191910 -18.490874 0.358038 2.195562 -18.522838 0.357422 2.193742 -18.506877 0.000001 -0.000000 0.000002 9.104497 -0.043001 -1.865103 0.614109 2.847350 -24.338648 0.614114 2.847354 -24.338629 0.614098 2.847339 -24.338641 0.000001 -0.000000 -0.000001 8.077815 -0.486894 -3.806305 2.734377 6.517084 -30.328301 0.977988 -0.539343 -31.115555 0.966689 3.523409 -30.677504 0.000001 -0.000000 -0.000000 -8.207800 -6.751718 -1.599543 -22.714926 -1.959195 -13.814107 28.945638 -10.057461 -3.333896 -1.651752 -3.867714 11.467566 -0.081262 -0.000001 0.000002 0.000000 0.000000 0.000000 8.207797 -6.751701 -1.599544 -9.993818 -1.824293 -11.500195 29.642314 10.169529 4.835433 -17.640461 26.911476 -1.100787 -0.962000 0.000029 -0.000006 0.000000 0.000002 0.000000 
4.080605 99.174362 0.677763 -2.666098 23.196028 5.163806 -0.000001 10.181553 0.131526 -7.108779 -1.643287 -4.820617 7.072440 -0.397328 -0.450786 7.072821 -0.346269 -0.491444 0.000000 16.740351 -2.049017 2.567139 0.331341 1.229970 0.000000 9.617867 1.684975 -16.478745 6.623380 -8.569071 0.000001 22.037369 7.501066 0.000003 -0.000001 -0.000000 -4.569999 11.014861 -2.160839 0.348096 8.513955 15.087978 55.125565 -9.306407 64.309434 0.000121 111.473359 -0.000068 63.481049 -1.092524 -2.711501 -2.464813 -1.573978 2.681905 21.625634 11.113606 11.672687 19.453314 -44.320958 -3.399041 -2.646268 -1.527804 1.527825 14.641967 -48.780364 -8.907119 -1.994601 -1.151580 1.151587 0.000004 -0.000002 0.000001 -9.108319 -0.517886 2.259799 7.444554 -6.930561 94.106237 7.444549 -6.930564 94.106271 7.444544 -6.930570 94.106251 0.000000 -0.000003 0.000003 -9.532530 0.000002 -0.000000 4.191697 -6.380495 66.575172 4.191679 -6.380487 66.575131 4.191677 -6.380488 66.575152 0.000002 0.000000 -0.000002 -9.103590 -0.043090 -1.865099 3.960685 -6.275975 64.479479 3.960672 -6.275979 64.479445 3.960670 -6.276001 64.479479 -0.000000 -0.000001 0.000003 -8.076691 -0.486714 -3.806299 4.691013 -6.573063 70.999577 4.691014 -6.573078 70.999577 4.691010 -6.573077 70.999557 -0.000002 -0.000001 0.000001 4.570402 11.014683 -2.160815 0.575505 -12.509789 -9.838862 5.765943 -18.995999 -63.905278 0.000012 -18.435519 0.000026 -25.392311 -0.345822 -6.614034 2.466081 -1.576201 2.681698 -2.215319 25.588931 10.084900 1.536132 19.593952 -2.276262 2.647889 -1.528758 1.528755 0.241182 10.850808 3.419966 1.998917 -1.154092 1.154075 0.000001 0.000001 -0.000000 9.109289 -0.518012 2.259897 0.184402 1.586067 -13.264079 0.184400 1.586075 -13.264120 0.184399 1.586066 -13.264084 0.000000 -0.000000 -0.000001 9.533398 0.000003 -0.000002 0.356814 2.191904 -18.490850 0.358027 2.195564 -18.522857 0.357421 2.193744 -18.506872 0.000001 -0.000000 -0.000001 9.104496 -0.042999 -1.865105 0.614097 2.847353 -24.338641 0.614113 2.847355 -24.338659 0.614096 2.847340 -24.338638 0.000000 -0.000001 0.000001 8.077793 -0.486903 -3.806307 2.734369 6.517079 -30.328284 0.977989 -0.539336 -31.115565 0.966695 3.523410 -30.677521 -0.000001 -0.000000 -0.000000 -8.207801 -6.751698 -1.599544 -22.659489 -1.919445 -13.776419 28.917149 -10.075584 -3.350677 -1.641561 -3.919197 11.492373 -0.110771 -0.000002 0.000003 0.000000 -0.000000 -0.000000 8.207799 -6.751699 -1.599545 -9.964301 -1.830164 -11.483252 29.631536 10.154709 4.833401 -17.645497 26.920752 -1.092217 -0.976182 -0.000056 -0.000001 0.000000 0.000004 0.000000 
4.094185 99.178246 0.681898 -2.663900 23.223606 5.160151 0.000001 10.181539 0.131526 -7.109286 -1.647523 -4.809188 7.059357 -0.397063 -0.447754 7.059741 -0.346293 -0.488336 0.000000 16.740345 -2.049019 2.569084 0.332370 1.232095 -0.000000 9.617846 1.684981 -16.484827 6.631977 -8.570024 -0.000003 22.037369 7.501068 0.000000 -0.000000 0.000001 -4.570004 11.014875 -2.160839 0.347205 8.521765 15.099581 55.110693 -9.390663 64.402632 0.000150 111.475695 -0.000082 63.524400 -1.008856 -2.679377 -2.464785 -1.573993 2.681901 21.625639 11.113583 11.672687 19.453292 -44.320958 -3.399058 -2.646269 -1.527787 1.527809 14.641948 -48.780347 -8.907130 -1.994601 -1.151584 1.151575 -0.000001 0.000002 0.000001 -9.108318 -0.517881 2.259808 7.444558 -6.930566 94.106271 7.444571 -6.930567 94.106271 7.444547 -6.930559 94.106258 -0.000000 0.000002 -0.000001 -9.532503 0.000021 0.000000 4.191691 -6.380495 66.575138 4.191682 -6.380493 66.575131 4.191681 -6.380503 66.575165 0.000003 0.000002 0.000002 -9.103591 -0.043099 -1.865100 3.960677 -6.275990 64.479451 3.960643 -6.275984 64.479438 3.960674 -6.275992 64.479472 0.000000 -0.000003 0.000001 -8.076698 -0.486717 -3.806301 4.691013 -6.573071 70.999571 4.691019 -6.573056 70.999557 4.691017 -6.573062 70.999550 0.000003 0.000002 0.000002 4.570401 11.014696 -2.160814 0.576168 -12.510599 -9.830687 5.729917 -19.039077 -63.947844 0.000008 -18.327426 0.000019 -25.534049 -0.418900 -6.614681 2.466096 -1.576218 2.681697 -2.215325 25.588931 10.084911 1.536134 19.593938 -2.276259 2.647876 -1.528733 1.528749 0.241192 10.850799 3.419959 1.998925 -1.154076 1.154074 -0.000001 -0.000003 -0.000000 9.109288 -0.518010 2.259898 0.184397 1.586070 -13.264064 0.184414 1.586077 -13.264075 0.184407 1.586066 -13.264092 0.000000 0.000001 0.000002 9.533408 0.000001 -0.000004 0.356811 2.191913 -18.490864 0.358033 2.195561 -18.522853 0.357417 2.193737 -18.506860 -0.000000 0.000000 0.000002 9.104477 -0.043017 -1.865102 0.614104 2.847353 -24.338643 0.614110 2.847358 -24.338641 0.614099 2.847339 -24.338648 0.000001 -0.000000 -0.000001 8.077801 -0.486900 -3.806305 2.734385 6.517082 -30.328294 0.977976 -0.539347 -31.115559 0.966691 3.523416 -30.677498 0.000001 -0.000000 -0.000000 -8.207801 -6.751718 -1.599540 -22.622684 -1.862710 -13.760671 28.895641 -10.076196 -3.356406 -1.629432 -4.008343 11.519281 -0.158515 -0.000000 0.000001 0.000000 -0.000000 -0.000000 8.207799 -6.751718 -1.599544 -9.954060 -1.834017 -11.486353 29.609949 10.176050 4.837176 -17.638931 26.892833 -1.094109 -0.995465 -0.000020 0.000000 0.000000 0.000000 0.000000 
